<svg width="200" height="76" viewBox="0 0 200 76" fill="none" xmlns="http://www.w3.org/2000/svg">
<path d="M0 18.8081L32.9333 0L65.8667 18.8081V56.904L32.9333 76L0 56.904V18.8081Z" fill="white"/>
<path d="M5.06689 54.13V24.3849L8.38185 22.1451L13.7575 39.2575V18.7406L18.058 16.2319V61.4767L14.8326 59.5952L8.38185 35.5841V55.8323L5.06689 54.13Z" fill="#00022E"/>
<path d="M42.5166 18.1133L44.6669 14.6191L32.1238 7.09326L21.731 13.3648V63.6268L25.9419 65.8666V40.6012H41.3519V35.8528H25.9419V15.6046L32.1238 12.0209L42.5166 18.1133Z" fill="#00022E"/>
<path d="M44.6669 19.3676L46.638 15.6046L60.4353 24.3848V29.3125L54.2534 25.012V57.3552L50.1321 59.7742V22.8617L44.6669 19.3676Z" fill="#00022E"/>
<path d="M97.464 52.468C94.392 50.26 91.68 47.848 89.328 45.232C87 42.616 85.056 39.856 83.496 36.952L87.744 34.72C87.912 35.032 88.068 35.32 88.212 35.584C88.356 35.824 88.536 36.1 88.752 36.412C89.496 36.292 90.192 36.064 90.84 35.728C91.512 35.392 92.052 34.9 92.46 34.252C92.892 33.58 93.108 32.716 93.108 31.66C93.108 30.316 92.7 29.26 91.884 28.492C91.068 27.724 89.964 27.34 88.572 27.34C87.732 27.34 86.844 27.352 85.908 27.376C84.996 27.4 84.12 27.448 83.28 27.52L83.244 52L78.816 52.468L78.204 27.916L76.44 28.168L75.72 25C76.392 24.856 77.268 24.712 78.348 24.568C79.428 24.4 80.604 24.244 81.876 24.1C83.148 23.932 84.396 23.8 85.62 23.704C86.868 23.608 87.984 23.56 88.968 23.56C91.752 23.56 93.96 24.256 95.592 25.648C97.224 27.04 98.04 29.044 98.04 31.66C98.04 33.22 97.668 34.528 96.924 35.584C96.18 36.64 95.208 37.468 94.008 38.068C92.832 38.644 91.572 39.004 90.228 39.148C92.484 42.628 95.76 46.288 100.056 50.128L97.464 52.468ZM115.593 52.648C113.001 52.648 110.757 52.024 108.861 50.776C106.965 49.528 105.501 47.8 104.469 45.592C103.461 43.36 102.957 40.792 102.957 37.888C102.957 35.032 103.461 32.512 104.469 30.328C105.501 28.12 106.965 26.392 108.861 25.144C110.757 23.872 113.001 23.236 115.593 23.236C118.185 23.236 120.417 23.872 122.289 25.144C124.185 26.392 125.637 28.12 126.645 30.328C127.653 32.536 128.157 35.056 128.157 37.888C128.157 40.792 127.653 43.36 126.645 45.592C125.637 47.8 124.185 49.528 122.289 50.776C120.417 52.024 118.185 52.648 115.593 52.648ZM116.493 48.58C117.837 48.46 119.013 47.992 120.021 47.176C121.053 46.36 121.857 45.244 122.433 43.828C123.009 42.388 123.297 40.72 123.297 38.824C123.297 38.56 123.285 38.296 123.261 38.032C123.261 37.768 123.249 37.504 123.225 37.24C123.057 35.152 122.601 33.364 121.857 31.876C121.137 30.388 120.213 29.26 119.085 28.492C117.957 27.7 116.709 27.304 115.341 27.304C115.245 27.304 115.137 27.304 115.017 27.304C114.921 27.304 114.813 27.316 114.693 27.34C113.373 27.436 112.197 27.892 111.165 28.708C110.133 29.524 109.317 30.64 108.717 32.056C108.117 33.448 107.817 35.092 107.817 36.988C107.817 37.228 107.817 37.48 107.817 37.744C107.841 38.008 107.865 38.272 107.889 38.536C108.057 40.648 108.513 42.46 109.257 43.972C110.001 45.46 110.949 46.612 112.101 47.428C113.253 48.22 114.525 48.616 115.917 48.616C116.013 48.616 116.109 48.616 116.205 48.616C116.301 48.592 116.397 48.58 116.493 48.58ZM144.527 52.648C141.935 52.648 139.691 52.024 137.795 50.776C135.899 49.528 134.435 47.8 133.403 45.592C132.395 43.36 131.891 40.792 131.891 37.888C131.891 35.032 132.395 32.512 133.403 30.328C134.435 28.12 135.899 26.392 137.795 25.144C139.691 23.872 141.935 23.236 144.527 23.236C147.119 23.236 149.351 23.872 151.223 25.144C153.119 26.392 154.571 28.12 155.579 30.328C156.587 32.536 157.091 35.056 157.091 37.888C157.091 40.792 156.587 43.36 155.579 45.592C154.571 47.8 153.119 49.528 151.223 50.776C149.351 52.024 147.119 52.648 144.527 52.648ZM145.427 48.58C146.771 48.46 147.947 47.992 148.955 47.176C149.987 46.36 150.791 45.244 151.367 43.828C151.943 42.388 152.231 40.72 152.231 38.824C152.231 38.56 152.219 38.296 152.195 38.032C152.195 37.768 152.183 37.504 152.159 37.24C151.991 35.152 151.535 33.364 150.791 31.876C150.071 30.388 149.147 29.26 148.019 28.492C146.891 27.7 145.643 27.304 144.275 27.304C144.179 27.304 144.071 27.304 143.951 27.304C143.855 27.304 143.747 27.316 143.627 27.34C142.307 27.436 141.131 27.892 140.099 28.708C139.067 29.524 138.251 30.64 137.651 32.056C137.051 33.448 136.751 35.092 136.751 36.988C136.751 37.228 136.751 37.48 136.751 37.744C136.775 38.008 136.799 38.272 136.823 38.536C136.991 40.648 137.447 42.46 138.191 43.972C138.935 45.46 139.883 46.612 141.035 47.428C142.187 48.22 143.459 48.616 144.851 48.616C144.947 48.616 145.043 48.616 145.139 48.616C145.235 48.592 145.331 48.58 145.427 48.58ZM185.808 52.468L184.8 32.56L177.744 47.14L178.68 49.084L174.18 50.992L166.404 33.856L163.812 52.468L160.176 52L162.048 26.296L160.86 23.92L166.44 23.2L175.8 43L182.856 23.2L189.012 23.92L187.86 26.26L191.28 52L185.808 52.468Z" fill="#070707"/>
</svg>
